<?xml version="1.0" encoding="utf-8"?>
<svg viewBox="0 0 32 32" fill="none" xmlns="http://www.w3.org/2000/svg">
  <path d="M 0.097 11.629 C 0.097 7.609 0.097 5.598 0.879 4.063 C 1.568 2.712 2.666 1.614 4.016 0.926 C 5.552 0.144 7.563 0.144 11.582 0.144 L 20.348 0.144 C 24.368 0.144 26.378 0.144 27.914 0.926 C 29.265 1.614 30.363 2.712 31.051 4.063 C 31.833 5.598 31.833 7.609 31.833 11.629 L 31.833 20.394 C 31.833 24.414 31.833 26.425 31.051 27.96 C 30.363 29.311 29.265 30.409 27.914 31.097 C 26.378 31.88 24.368 31.88 20.348 31.88 L 11.582 31.88 C 7.563 31.88 5.552 31.88 4.016 31.097 C 2.666 30.409 1.568 29.311 0.879 27.96 C 0.097 26.425 0.097 24.414 0.097 20.394 L 0.097 11.629 Z" fill="#470137" style="" transform="matrix(1, 0, 0, 1, 0, 2.220446049250313e-16)"/>
  <path d="M 16.698 9.476 L 12.738 16.18 L 16.975 23.298 C 17.062 23.459 16.975 23.495 16.847 23.495 L 13.824 23.495 C 13.611 23.495 13.462 23.487 13.376 23.342 C 13.093 22.774 12.808 22.21 12.525 21.65 C 12.241 21.089 11.939 20.517 11.621 19.935 C 11.301 19.353 10.985 18.764 10.673 18.167 C 10.389 18.749 10.073 19.331 9.769 19.913 C 9.463 20.496 9.161 21.074 8.863 21.65 C 8.565 22.224 8.26 22.796 7.948 23.363 C 7.892 23.494 7.792 23.507 7.65 23.507 L 4.733 23.507 C 4.618 23.507 4.605 23.421 4.669 23.319 L 8.778 16.397 L 4.776 9.454 C 4.703 9.355 4.766 9.25 4.882 9.258 L 7.884 9.258 C 8.014 9.25 8.128 9.299 8.203 9.411 C 8.458 9.992 8.743 10.575 9.054 11.158 C 9.367 11.74 9.682 12.315 10.002 12.883 C 10.322 13.45 10.638 14.025 10.908 14.608 C 11.191 14.01 11.478 13.428 11.769 12.86 C 12.06 12.293 12.358 11.721 12.663 11.146 C 12.968 10.572 13.263 10 13.547 9.432 C 13.585 9.308 13.675 9.244 13.802 9.258 L 16.592 9.258 C 16.698 9.258 16.741 9.403 16.698 9.476 Z" fill="#FF61F6" style="" transform="matrix(1, 0, 0, 1, 0, 2.220446049250313e-16)"/>
  <path d="M 22.808 23.778 C 20.931 23.808 18.964 23.035 17.975 21.322 C 17.493 20.499 17.251 19.47 17.251 18.232 C 17.244 17.23 17.493 16.243 17.975 15.372 C 19.219 13.148 21.726 12.315 24.106 12.534 L 24.106 8.231 C 24.106 8.13 24.15 8.079 24.235 8.079 L 26.916 8.079 C 26.99 8.068 27.054 8.135 27.044 8.209 L 27.044 21.115 C 27.044 21.646 27.098 22.178 27.129 22.708 C 27.135 22.799 27.083 22.889 27.002 22.927 C 25.676 23.494 24.242 23.771 22.808 23.778 Z M 24.106 21.071 L 24.106 15.11 C 22.161 14.569 20.274 16.051 20.274 18.101 C 20.228 20.222 22.056 21.686 24.106 21.071 Z" fill="#FF61F6" style="" transform="matrix(1, 0, 0, 1, 0, 2.220446049250313e-16)"/>
</svg>