<?xml version="1.0" encoding="utf-8"?>
<svg viewBox="0 0 32 32" fill="none" xmlns="http://www.w3.org/2000/svg">
  <path d="M 16.024 0.097 L 1.214 5.794 L 3.493 25.161 L 16.024 31.995 L 28.555 25.161 L 30.834 5.794 L 16.024 0.097 Z" fill="#DD0031" style="" transform="matrix(1, 0, 0, 1, 0, 2.220446049250313e-16)"/>
  <path d="M 16.024 0.097 L 16.024 31.995 L 28.555 25.161 L 30.834 5.794 L 16.024 0.097 Z" fill="#C3002F" style="" transform="matrix(1, 0, 0, 1, 0, 2.220446049250313e-16)"/>
  <path d="M 16.024 3.622 L 6.765 24.435 L 10.217 24.435 L 12.079 19.778 L 19.937 19.778 L 21.798 24.435 L 25.25 24.435 L 16.024 3.622 Z M 18.728 16.907 L 13.32 16.907 L 16.024 10.384 L 18.728 16.907 Z" fill="white" style="" transform="matrix(1, 0, 0, 1, 0, 2.220446049250313e-16)"/>
</svg>