<?xml version="1.0" encoding="UTF-8" standalone="no"?>
<!DOCTYPE svg PUBLIC "-//W3C//DTD SVG 1.1//EN" "http://www.w3.org/Graphics/SVG/1.1/DTD/svg11.dtd">
<svg width="100%" height="100%" viewBox="0 0 24 22" version="1.1" xmlns="http://www.w3.org/2000/svg" xmlns:xlink="http://www.w3.org/1999/xlink" xml:space="preserve" xmlns:serif="http://www.serif.com/" style="fill-rule:evenodd;clip-rule:evenodd;stroke-linejoin:round;stroke-miterlimit:2;">
    <path d="M11.39,8.269C11.58,7.992 11.787,7.957 11.955,7.957C12.123,7.957 12.402,7.992 12.592,8.269C14.082,10.299 16.542,14.344 18.357,17.329C19.541,19.274 20.45,20.769 20.637,20.959C21.337,21.673 22.297,21.228 22.855,20.418C23.404,19.621 23.556,19.061 23.556,18.464C23.556,18.057 15.598,3.377 14.797,2.155C14.027,0.98 13.775,0.683 12.457,0.683L11.469,0.683C10.154,0.683 9.964,0.98 9.193,2.155C8.392,3.377 0.433,18.057 0.433,18.463C0.433,19.061 0.586,19.621 1.136,20.418C1.694,21.228 2.654,21.673 3.354,20.958C3.54,20.768 4.449,19.274 5.633,17.328C7.448,14.344 9.9,10.299 11.391,8.268L11.39,8.269Z" style="fill:white;fill-rule:nonzero;"/>
</svg>
