<?xml version="1.0" encoding="utf-8"?>
<!-- Generator: Adobe Illustrator 16.0.4, SVG Export Plug-In . SVG Version: 6.00 Build 0)  -->
<!DOCTYPE svg PUBLIC "-//W3C//DTD SVG 1.1//EN" "http://www.w3.org/Graphics/SVG/1.1/DTD/svg11.dtd">
<svg version="1.1" id="Livello_1" xmlns="http://www.w3.org/2000/svg" xmlns:xlink="http://www.w3.org/1999/xlink" x="0px" y="0px"
	 width="270px" height="50px" viewBox="0 0 270 50" enable-background="new 0 0 270 50" xml:space="preserve">
<path fill="#0A1612" d="M0.026,23.723C0.008,24.141,0,24.562,0,24.994c0,1.658,0.163,3.26,0.467,4.809l29.748-7.852l-1.989-2.047
	L0.026,23.723z M40.301,19.289l8.408-2.213C45.395,7.145,36.02,0,24.996,0C13.708,0,4.187,7.465,1.076,17.725l25.178,0.137
	l1.98,2.047l9.678-1.312L40.301,19.289z M40.301,19.289l-10.086,2.666l2.119,2.188l10.863-4.01L40.301,19.289z M49.006,17.996
	l-5.809,2.137l2.449,0.711l-11.274,5.408l-2.038-2.111L2.194,35.287C3,37.062,4.009,38.727,5.182,40.244L34.37,26.242l2.056,2.139
	L8.736,43.992C13.104,47.736,18.788,50,24.995,50c13.8,0,24.987-11.191,24.987-25.004C50,22.57,49.65,20.209,49.006,17.996"/>
<path fill="#0A1612" d="M151.699,17.195l-4.616,15.018h2.298c0,0,1.243-4.131,1.353-4.512h4.738c0.126,0.365,1.37,4.512,1.37,4.512
	h2.282l-4.612-15.018H151.699z M153.11,19.301c0.267,0.984,1.638,5.84,1.806,6.457h-3.606
	C151.475,25.141,152.832,20.285,153.11,19.301"/>
<path fill="#0A1612" d="M168.527,17.193v10.48c0,1.713-1.24,2.785-3.171,2.785c-1.928,0-3.171-1.072-3.171-2.785v-10.48H160v10.371
	c0,2.947,2.107,4.852,5.356,4.852c3.245,0,5.356-1.904,5.356-4.852V17.193H168.527z"/>
<polygon fill="#0A1612" points="171.717,17.193 171.717,19.129 176.033,19.129 176.033,32.201 178.224,32.201 178.224,19.129 
	182.541,19.129 182.541,17.193 "/>
<path fill="#0A1612" d="M182.424,24.707c0,4.912,2.154,7.705,5.933,7.705c3.77,0,5.936-2.805,5.936-7.705
	c0-4.91-2.166-7.707-5.936-7.707C184.578,16.992,182.424,19.799,182.424,24.707 M184.602,24.707c0-2.631,0.663-5.771,3.755-5.771
	c3.099,0,3.745,3.141,3.745,5.771c0,2.627-0.646,5.764-3.745,5.764C185.265,30.471,184.602,27.334,184.602,24.707"/>
<path fill="#0A1612" d="M205.793,17.193c0,0-2.982,9.631-3.426,11.062c-0.451-1.432-3.492-11.062-3.492-11.062h-2.984v15.018h2.035
	V20.477c0.756,2.541,3.6,11.734,3.6,11.734h1.673c0,0,2.814-9.172,3.601-11.723v11.723h2.037V17.193H205.793z"/>
<path fill="#0A1612" d="M214.395,17.195l-4.622,15.018h2.303c0,0,1.239-4.131,1.354-4.512h4.729
	c0.129,0.365,1.355,4.512,1.355,4.512h2.314l-4.626-15.018H214.395z M215.805,19.301c0.258,0.98,1.633,5.84,1.811,6.457h-3.62
	C214.167,25.141,215.531,20.281,215.805,19.301"/>
<polygon fill="#0A1612" points="219.229,17.193 219.229,19.129 223.542,19.129 223.542,32.201 225.737,32.201 225.737,19.129 
	230.055,19.129 230.055,17.193 "/>
<g>
	<rect x="231.412" y="17.193" fill="#0A1612" width="2.199" height="15.018"/>
</g>
<path fill="#0A1612" d="M235.58,24.707c0,4.912,2.148,7.705,5.92,7.705c3.774,0,5.933-2.805,5.933-7.705
	c0-4.91-2.158-7.707-5.933-7.707C237.729,17,235.58,19.799,235.58,24.707 M237.769,24.707c0-2.631,0.646-5.771,3.731-5.771
	c3.087,0,3.761,3.141,3.761,5.771c0,2.627-0.65,5.764-3.761,5.764C238.415,30.471,237.769,27.334,237.769,24.707"/>
<path fill="#0A1612" d="M257.665,17.193v10.449c-0.79-1.424-5.913-10.449-5.913-10.449H249v15.018h2.033V20.084
	c0.853,1.539,6.901,12.127,6.901,12.127h1.766V17.193H257.665z"/>
<path fill="#0A1612" d="M63,17.188h5.54c4.18,0,7.636,3.289,7.636,7.498c0,4.225-3.474,7.51-7.636,7.51H63V17.188z M66.905,28.9
	h0.874c2.332,0,4.32-1.271,4.32-4.215c0-2.693-1.772-4.199-4.29-4.199h-0.915L66.905,28.9z"/>
<path fill="#0A1612" d="M80.035,29.604l-1.043,2.602h-4.139l5.782-15.018h4.263l5.664,15.018h-4.168l-0.979-2.602H80.035z
	 M82.768,21.832h-0.041l-1.613,4.787h3.239L82.768,21.832z"/>
<g>
	<polygon fill="#0A1612" points="91,17.188 94.914,17.188 102.067,26.375 102.12,26.375 102.12,17.188 106.022,17.188 
		106.022,32.207 102.12,32.207 94.969,23.012 94.919,23.012 94.919,32.207 91.003,32.207 	"/>
</g>
<g>
	<rect x="108" y="17.188" fill="#0A1612" width="3.9" height="15.02"/>
</g>
<polygon fill="#0A1612" points="117.909,20.496 117.909,23.012 123.591,23.012 123.591,26.32 117.909,26.32 117.909,28.91 
	123.818,28.91 123.818,32.217 114,32.217 114,17.197 123.818,17.197 123.818,20.508 "/>
<polygon fill="#0A1612" points="128.906,28.9 133.591,28.9 133.591,32.207 125,32.207 125,17.188 128.906,17.188 "/>
<g>
	<rect x="135" y="17.188" fill="#0A1612" width="3.903" height="15.02"/>
</g>
</svg>
