<?xml version="1.0" encoding="utf-8"?>
<svg viewBox="0 0 604.786 500.003" xmlns="http://www.w3.org/2000/svg">
  <rect fill="#1E2828" width="604.786" height="500.003" style="" transform="matrix(1, 0, 0, 1, 0, 1.7763568394002505e-15)"/>
  <path fill="#FFFFFF" d="M 93.921 248.032 C 93.891 248.683 93.88 249.329 93.88 249.99 C 93.88 252.548 94.139 255.015 94.597 257.409 L 140.448 245.304 L 137.386 242.143 L 93.921 248.032 Z M 156.004 241.2 L 168.962 237.783 C 163.851 222.483 149.403 211.466 132.407 211.466 C 115.01 211.466 100.323 222.974 95.537 238.795 L 134.349 238.999 L 137.406 242.155 L 152.316 240.134 L 156.004 241.2 Z M 156.004 241.2 L 140.448 245.304 L 143.723 248.683 L 160.47 242.502 L 156.004 241.2 Z M 169.415 239.204 L 160.47 242.502 L 164.243 243.595 L 146.866 251.928 L 143.723 248.683 L 97.262 265.857 C 98.513 268.603 100.059 271.164 101.865 273.503 L 146.861 251.917 L 150.024 255.218 L 107.357 279.273 C 114.08 285.052 122.842 288.536 132.408 288.536 C 153.681 288.536 170.931 271.289 170.931 249.996 C 170.951 246.262 170.412 242.621 169.415 239.204" transform="matrix(1, 0, 0, 1, 0, 1.7763568394002505e-15)"/>
  <path fill="#FFFFFF" d="M 325.402 238.456 L 318.282 261.62 L 321.822 261.62 C 321.822 261.62 323.739 255.24 323.917 254.658 L 331.22 254.658 C 331.404 255.225 333.33 261.62 333.33 261.62 L 336.834 261.62 L 329.735 238.456 L 325.402 238.456 Z M 327.579 241.71 C 327.99 243.231 330.101 250.709 330.36 251.663 L 324.797 251.663 C 325.057 250.709 327.151 243.231 327.579 241.71" transform="matrix(1, 0, 0, 1, 0, 1.7763568394002505e-15)"/>
  <path fill="#FFFFFF" d="M 351.471 238.461 L 351.471 254.617 C 351.471 257.26 349.553 258.915 346.578 258.915 C 343.603 258.915 341.691 257.26 341.691 254.617 L 341.691 238.461 L 338.324 238.461 L 338.324 254.452 C 338.324 258.994 341.569 261.926 346.578 261.926 C 351.582 261.926 354.832 258.994 354.832 254.452 L 354.832 238.461 L 351.471 238.461 Z" transform="matrix(1, 0, 0, 1, 0, 1.7763568394002505e-15)"/>
  <polygon fill="#FFFFFF" points="356.378 238.461 356.378 241.449 363.045 241.449 363.045 261.603 366.406 261.603 366.406 241.449 373.068 241.449 373.068 238.461" transform="matrix(1, 0, 0, 1, 0, 1.7763568394002505e-15)"/>
  <path fill="#FFFFFF" d="M 372.886 250.043 C 372.886 257.613 376.206 261.925 382.03 261.925 C 387.838 261.925 391.178 257.592 391.178 250.043 C 391.178 242.476 387.837 238.163 382.03 238.163 C 376.206 238.148 372.886 242.486 372.886 250.043 M 376.242 250.043 C 376.242 245.984 377.263 241.148 382.029 241.148 C 386.809 241.148 387.806 245.984 387.806 250.043 C 387.806 254.093 386.809 258.929 382.029 258.929 C 377.264 258.93 376.242 254.094 376.242 250.043" transform="matrix(1, 0, 0, 1, 0, 1.7763568394002505e-15)"/>
  <path fill="#FFFFFF" d="M 408.906 238.461 C 408.906 238.461 404.313 253.306 403.632 255.521 C 402.931 253.306 398.241 238.461 398.241 238.461 L 393.644 238.461 L 393.644 261.612 L 396.777 261.612 L 396.777 243.521 C 397.946 247.442 402.33 261.612 402.33 261.612 L 404.908 261.612 C 404.908 261.612 409.241 247.467 410.457 243.541 L 410.457 261.612 L 413.6 261.612 L 413.6 238.461 L 408.906 238.461 Z" transform="matrix(1, 0, 0, 1, 0, 1.7763568394002505e-15)"/>
  <path fill="#FFFFFF" d="M 422.164 238.456 L 415.039 261.62 L 418.594 261.62 C 418.594 261.62 420.501 255.24 420.679 254.658 L 427.972 254.658 C 428.17 255.225 430.057 261.62 430.057 261.62 L 433.626 261.62 L 426.491 238.456 L 422.164 238.456 Z M 424.34 241.71 C 424.737 243.221 426.858 250.709 427.132 251.663 L 421.554 251.663 C 421.812 250.709 423.929 243.221 424.34 241.71" transform="matrix(1, 0, 0, 1, 0, 1.7763568394002505e-15)"/>
  <polygon fill="#FFFFFF" points="429.619 238.461 429.619 241.449 436.261 241.449 436.261 261.603 439.643 261.603 439.643 241.449 446.31 241.449 446.31 238.461" transform="matrix(1, 0, 0, 1, 0, 1.7763568394002505e-15)"/>
  <rect x="448.405" y="238.458" fill="#FFFFFF" width="3.387" height="23.154" transform="matrix(1, 0, 0, 1, 0, 1.7763568394002505e-15)"/>
  <path fill="#FFFFFF" d="M 454.828 250.043 C 454.828 257.613 458.134 261.925 463.951 261.925 C 469.768 261.925 473.099 257.592 473.099 250.043 C 473.099 242.476 469.768 238.163 463.951 238.163 C 458.134 238.163 454.828 242.486 454.828 250.043 M 458.199 250.043 C 458.199 245.984 459.191 241.148 463.951 241.148 C 468.711 241.148 469.738 245.984 469.738 250.043 C 469.738 254.093 468.736 258.929 463.951 258.929 C 459.191 258.93 458.199 254.094 458.199 250.043" transform="matrix(1, 0, 0, 1, 0, 1.7763568394002505e-15)"/>
  <path fill="#FFFFFF" d="M 488.977 238.461 L 488.977 254.566 C 487.751 252.375 479.859 238.461 479.859 238.461 L 475.608 238.461 L 475.608 261.612 L 478.751 261.612 L 478.751 242.916 C 480.068 245.291 489.39 261.612 489.39 261.612 L 492.111 261.612 L 492.111 238.461 L 488.977 238.461 Z" transform="matrix(1, 0, 0, 1, 0, 1.7763568394002505e-15)"/>
  <path fill="#FFFFFF" d="M 190.367 238.451 L 198.91 238.451 C 205.348 238.451 210.673 243.524 210.673 250.013 C 210.673 256.523 205.323 261.585 198.91 261.585 L 190.367 261.585 L 190.367 238.451 Z M 196.383 256.507 L 197.741 256.507 C 201.331 256.507 204.393 254.554 204.393 250.013 C 204.393 245.863 201.667 243.534 197.782 243.534 L 196.373 243.534 L 196.383 256.507 Z" transform="matrix(1, 0, 0, 1, 0, 1.7763568394002505e-15)"/>
  <path fill="#FFFFFF" d="M 216.624 257.595 L 215.017 261.606 L 208.635 261.606 L 217.56 238.454 L 224.125 238.454 L 232.857 261.606 L 226.434 261.606 L 224.924 257.595 L 216.624 257.595 Z M 220.839 245.614 L 220.783 245.614 L 218.291 252.998 L 223.28 252.998 L 220.839 245.614 Z" transform="matrix(1, 0, 0, 1, 0, 1.7763568394002505e-15)"/>
  <polygon fill="#FFFFFF" points="233.492 238.454 239.519 238.454 250.549 252.611 250.63 252.611 250.63 238.454 256.641 238.454 256.641 261.6 250.63 261.6 239.61 247.437 239.529 247.437 239.529 261.6 233.502 261.6" transform="matrix(1, 0, 0, 1, 0, 1.7763568394002505e-15)"/>
  <rect x="259.336" y="238.458" fill="#FFFFFF" width="6.006" height="23.149" transform="matrix(1, 0, 0, 1, 0, 1.7763568394002505e-15)"/>
  <polygon fill="#FFFFFF" points="274.069 243.554 274.069 247.435 282.827 247.435 282.827 252.532 274.069 252.532 274.069 256.52 283.177 256.52 283.177 261.62 268.038 261.62 268.038 238.466 283.177 238.466 283.177 243.575" transform="matrix(1, 0, 0, 1, 0, 1.7763568394002505e-15)"/>
  <polygon fill="#FFFFFF" points="291.075 256.507 298.307 256.507 298.307 261.605 285.064 261.605 285.064 238.451 291.075 238.451" transform="matrix(1, 0, 0, 1, 0, 1.7763568394002505e-15)"/>
  <rect x="299.654" y="238.458" fill="#FFFFFF" width="6.017" height="23.149" transform="matrix(1, 0, 0, 1, 0, 1.7763568394002505e-15)"/>
</svg>